#!OML:ASF F:\VICON\USERDATA\INSTALL\rory3\rory3.ASF
:FULLY-SPECIFIED
:DEGREES
1742
root -1.76327 17.6033 -1.15464 5.4686 5.6887 2.61796
lowerback 6.55793 -1.18893 -2.87466
upperback 0.732026 -1.70902 2.5797
thorax -2.75717 -0.808233 4.44015
lowerneck -26.5737 -4.36446 -10.9107
upperneck 16.1029 -3.81247 8.56136
head 9.82704 -1.43694 4.21827
rclavicle 8.74653e-015 0
rhumerus -45.3079 2.40027 -83.4447
rradius 85.5788
rwrist 35.3235
rhand -37.3847 11.4744
rfingers 7.12502
rthumb -10.4457 -18.2461
lclavicle 8.74653e-015 0
lhumerus -41.9775 -4.125 89.0492
lradius 76.9894
lwrist -15.9723
lhand -24.738 13.6286
lfingers 7.12502
lthumb 1.7646 43.6011
rfemur -15.6574 -0.0830239 7.87595
rtibia 34.3392
rfoot -21.6113 -11.7268
rtoes -5.58576
lfemur -13.77 -1.66723 -13.9789
ltibia 26.4055
lfoot -12.6522 6.51088
ltoes -26.3595
1743
root -1.75592 17.6049 -1.17096 5.52439 5.68243 2.54372
lowerback 6.46515 -1.18402 -2.74447
upperback 0.731747 -1.69189 2.56735
thorax -2.71139 -0.802142 4.34895
lowerneck -26.7485 -4.37094 -10.8519
upperneck 15.7389 -3.80237 8.55205
head 9.724 -1.4227 4.19974
rclavicle 1.21259e-014 -1.98785e-014
rhumerus -45.319 2.57623 -83.6479
rradius 85.443
rwrist 35.1678
rhand -37.6399 11.6248
rfingers 7.12502
rthumb -10.6919 -18.0831
lclavicle 1.21259e-014 -1.98785e-014
lhumerus -41.597 -4.48133 88.9815
lradius 77.1514
lwrist -16.2439
lhand -24.7055 13.6675
lfingers 7.12502
lthumb 1.79596 43.6397
rfemur -15.7596 -0.0478047 7.92017
rtibia 34.2921
rfoot -21.6223 -11.7503
rtoes -5.2394
lfemur -13.8903 -1.6341 -13.9289
ltibia 26.411
lfoot -12.635 6.47225
ltoes -26.4407
1744
root -1.75158 17.6061 -1.19052 5.57097 5.7564 2.40183
lowerback 6.45789 -1.21709 -2.56924
upperback 0.680673 -1.72232 2.59119
thorax -2.76176 -0.817181 4.27782
lowerneck -26.7201 -4.3549 -10.9181
upperneck 15.4223 -3.75519 8.61104
head 9.60443 -1.39593 4.23321
rclavicle 4.96962e-015 9.54166e-015
rhumerus -45.2686 2.91709 -83.8044
rradius 85.2885
rwrist 35.125
rhand -37.8751 11.5728
rfingers 7.12502
rthumb -10.9188 -18.1233
lclavicle 4.96962e-015 9.54166e-015
lhumerus -41.1907 -4.82917 88.8483
lradius 77.3894
lwrist -16.6767
lhand -24.6893 14.1383
lfingers 7.12502
lthumb 1.81162 44.1104
rfemur -15.8444 -0.0469114 8.05548
rtibia 34.2194
rfoot -21.7065 -11.7462
rtoes -4.58974
lfemur -14.0637 -1.62688 -13.7742
ltibia 26.453
lfoot -12.6448 6.35054
ltoes -26.3025
1745
root -1.75214 17.6062 -1.21164 5.5397 5.85539 2.21852
lowerback 6.48121 -1.2325 -2.39714
upperback 0.690614 -1.72977 2.6257
thorax -2.76788 -0.822604 4.21741
lowerneck -26.7056 -4.35604 -10.9504
upperneck 15.0299 -3.73301 8.64462
head 9.46219 -1.3806 4.24634
rclavicle -1.59028e-014 1.66979e-014
rhumerus -45.0769 3.277 -83.8628
rradius 85.209
rwrist 35.0307
rhand -37.9533 11.653
rfingers 7.12502
rthumb -10.9943 -18.0391
lclavicle -1.59028e-014 1.66979e-014
lhumerus -40.6646 -5.22354 88.6052
lradius 77.6923
lwrist -17.1746
lhand -24.628 14.3825
lfingers 7.12502
lthumb 1.87087 44.354
rfemur -15.831 0.115238 8.26514
rtibia 34.1384
rfoot -21.8297 -11.8306
rtoes -3.85577
lfemur -14.1923 -1.69183 -13.5367
ltibia 26.5113
lfoot -12.6632 6.22628
ltoes -25.9779
1746
root -1.75252 17.6062 -1.2285 5.37888 5.87802 2.06724
lowerback 6.52664 -1.21771 -2.27604
upperback 0.797659 -1.70202 2.64507
thorax -2.68798 -0.813076 4.16581
lowerneck -26.9012 -4.35144 -10.8286
upperneck 14.5835 -3.70501 8.54575
head 9.329 -1.3638 4.18696
rclavicle -2.50469e-014 3.10104e-014
rhumerus -44.6998 3.75689 -83.8703
rradius 85.2588
rwrist 34.8509
rhand -37.952 11.556
rfingers 7.12502
rthumb -10.993 -18.1361
lclavicle -2.50469e-014 3.10104e-014
lhumerus -40.0048 -5.68396 88.2457
lradius 78.0353
lwrist -17.3513
lhand -24.4844 14.4562
lfingers 7.12502
lthumb 2.00956 44.4265
rfemur -15.6906 0.339201 8.4314
rtibia 34.0622
rfoot -21.7961 -11.9618
rtoes -3.79513
lfemur -14.1494 -1.65028 -13.3481
ltibia 26.584
lfoot -12.6932 6.06418
ltoes -25.7263
1747
root -1.74921 17.6039 -1.24329 5.28004 5.85397 2.08047
lowerback 6.50225 -1.2071 -2.347
upperback 0.890131 -1.69233 2.68126
thorax -2.57638 -0.811033 4.24025
lowerneck -27.1994 -4.34192 -10.8151
upperneck 14.1517 -3.62224 8.45919
head 9.2144 -1.32457 4.15939
rclavicle -3.77691e-015 -9.54166e-015
rhumerus -44.2065 4.42933 -83.6974
rradius 85.3739
rwrist 34.7371
rhand -38.0055 11.6137
rfingers 7.12502
rthumb -11.0445 -18.0757
lclavicle -3.77691e-015 -9.54166e-015
lhumerus -39.1941 -6.13187 87.9044
lradius 78.3252
lwrist -17.1394
lhand -24.5998 14.2294
lfingers 7.12502
lthumb 1.89805 44.2007
rfemur -15.6064 0.404368 8.3725
rtibia 33.9877
rfoot -21.709 -11.8993
rtoes -3.4274
lfemur -14.124 -1.56882 -13.3813
ltibia 26.6777
lfoot -12.7244 5.96502
ltoes -25.7576
1748
root -1.74488 17.6 -1.26082 5.2329 5.83741 2.12114
lowerback 6.49692 -1.18385 -2.38944
upperback 0.892434 -1.66394 2.69487
thorax -2.57194 -0.796569 4.27601
lowerneck -27.3826 -4.36392 -10.9021
upperneck 13.7274 -3.57191 8.43632
head 9.09071 -1.30112 4.16609
rclavicle 2.04748e-014 -3.18055e-015
rhumerus -43.7282 5.11411 -83.4053
rradius 85.4862
rwrist 34.5774
rhand -38.1922 12.1716
rfingers 7.12502
rthumb -11.2247 -17.5082
lclavicle 2.04748e-014 -3.18055e-015
lhumerus -38.3601 -6.74341 87.491
lradius 78.6212
lwrist -16.8174
lhand -24.9983 13.8038
lfingers 7.12502
lthumb 1.51319 43.7782
rfemur -15.5567 0.335962 8.26755
rtibia 33.9097
rfoot -21.648 -11.7088
rtoes -2.92907
lfemur -14.1747 -1.39723 -13.4543
ltibia 26.7861
lfoot -12.7548 5.80782
ltoes -25.9007
1749
root -1.742 17.5971 -1.28083 5.21844 5.78264 2.10218
lowerback 6.52504 -1.11838 -2.38533
upperback 0.822039 -1.57574 2.71204
thorax -2.66815 -0.74953 4.28674
lowerneck -27.4126 -4.39862 -11.0023
upperneck 13.2238 -3.5609 8.47693
head 8.92106 -1.29158 4.18996
rclavicle 1.5704e-014 -8.74653e-015
rhumerus -43.2948 5.79239 -83.0228
rradius 85.747
rwrist 34.2917
rhand -38.4766 12.6715
rfingers 7.12502
rthumb -11.4989 -16.9931
lclavicle 1.5704e-014 -8.74653e-015
lhumerus -37.5749 -7.42125 86.928
lradius 79.1354
lwrist -16.6388
lhand -24.8965 13.8786
lfingers 7.12502
lthumb 1.61151 43.8523
rfemur -15.5814 0.263655 8.24008
rtibia 33.8287
rfoot -21.5158 -11.5361
rtoes -2.66781
lfemur -14.2732 -1.2531 -13.4517
ltibia 26.9078
lfoot -12.8097 5.67231
ltoes -25.9786
